<?xml version="1.0" encoding="UTF-8" standalone="no"?>
<!DOCTYPE svg PUBLIC "-//W3C//DTD SVG 1.1//EN" "http://www.w3.org/Graphics/SVG/1.1/DTD/svg11.dtd">
<svg xmlns="http://www.w3.org/2000/svg" version="1.1" viewBox="0.00 0.00 75.00 72.00">
<path fill="#ef383d" d="
  M 25.09 0.00
  L 46.36 0.00
  C 68.63 7.68 69.77 34.50 63.78 53.29
  C 62.51 57.27 60.70 59.64 56.35 60.61
  C 48.01 62.48 33.01 65.78 25.83 60.12
  C 19.03 54.76 25.79 44.57 30.99 39.72
  C 37.99 33.21 52.77 18.96 44.06 8.69
  C 38.27 1.88 28.95 2.85 20.79 2.98
  A 0.91 0.91 0.0 0 1 20.29 1.30
  Q 22.08 0.15 25.09 0.00
  Z"
/>
<path fill="#154ba1" d="
  M 26.95 64.05
  C 34.06 67.75 40.03 67.21 47.22 66.94
  A 0.64 0.64 0.0 0 1 47.64 68.09
  C 39.83 74.22 25.35 71.95 17.50 67.99
  C -2.72 57.78 -2.27 28.82 6.15 11.57
  A 2.38 2.38 0.0 0 1 7.47 10.38
  Q 20.27 5.73 33.97 7.05
  C 59.05 9.46 34.42 33.00 27.50 40.03
  C 21.30 46.33 16.48 58.61 26.95 64.05
  Z"
/>
</svg>
